<svg width="397" height="371" viewBox="0 0 397 371" fill="none" xmlns="http://www.w3.org/2000/svg">
<g clip-path="url(#clip0)">
<path opacity="0.1" d="M124.471 371C171.248 371 209.168 364.028 209.168 355.428C209.168 346.827 171.248 339.855 124.471 339.855C77.694 339.855 39.7738 346.827 39.7738 355.428C39.7738 364.028 77.694 371 124.471 371Z" fill="#6C63FF"/>
<path opacity="0.1" d="M123.101 16.3683C136.535 2.00725 157.626 -0.934172 176.826 0.225095C237.123 3.82401 291.547 38.7188 338.638 78.1988C355.685 92.495 372.467 107.894 383.53 127.58C406.054 167.644 399.371 223.15 368.052 256.155C357.397 267.402 344.48 275.996 331.221 283.627C307.641 297.196 282.2 308.088 255.439 311.19C236.357 313.4 217.038 311.601 198.066 308.517C145.058 299.9 93.0278 280.833 49.4204 248.23C30.2949 233.947 12.2678 216.152 4.38297 193.014C-3.50188 169.876 1.53002 140.557 21.0763 126.866C29.1537 121.2 38.811 118.648 48.2649 116.238C62.1731 112.704 76.3237 109.218 88.8838 102.033C101.854 94.6059 117.214 80.2491 114.646 63.8204C111.889 46.1848 109.671 30.7034 123.101 16.3683Z" fill="#6C63FF"/>
<path d="M329.206 38.2644C331.617 57.5394 324.909 74.7597 324.909 74.7597C324.909 74.7597 314.292 60.7317 311.874 41.4568C310.522 30.6427 312.038 20.4861 313.629 13.643C313.829 12.7543 314.238 11.9554 314.806 11.3433C315.374 10.7311 316.076 10.3321 316.827 10.1947C317.578 10.0573 318.346 10.1873 319.038 10.5691C319.729 10.9509 320.314 11.5679 320.722 12.3453C323.921 18.2974 327.854 27.4547 329.206 38.2644Z" fill="#6C63FF"/>
<path d="M374.033 68.9852C376.421 68.9717 378.801 69.3367 381.112 70.071C385.002 71.2821 385.063 77.9652 381.194 79.2802C378.897 80.0739 376.524 80.5014 374.136 80.5519C365.388 80.6687 358.245 74.9762 358.245 74.9762C358.245 74.9762 365.285 69.102 374.033 68.9852Z" fill="#6C63FF"/>
<path d="M349.433 39.6831C341.292 50.5361 339.569 64.7199 339.569 64.7199C339.569 64.7199 351.045 61.3026 359.183 50.4453C362.956 45.4146 365.353 39.6702 366.836 34.9552C367.117 34.0627 367.17 33.0882 366.988 32.1587C366.806 31.2291 366.398 30.3876 365.816 29.7435C365.234 29.0994 364.506 28.6827 363.726 28.5476C362.947 28.4125 362.151 28.5652 361.444 28.9859C357.693 31.2222 353.206 34.6524 349.433 39.6831Z" fill="#6C63FF"/>
<path d="M359.458 37.6372H190.278C186.378 37.6372 183.217 41.4718 183.217 46.2019V296.816C183.217 301.546 186.378 305.38 190.278 305.38H359.458C363.357 305.38 366.519 301.546 366.519 296.816V46.2019C366.519 41.4718 363.357 37.6372 359.458 37.6372Z" fill="#464353"/>
<path opacity="0.1" d="M350.706 64.6465H199.029V278.371H350.706V64.6465Z" fill="#6C63FF"/>
<path d="M274.868 300.293C278.433 300.293 281.323 296.788 281.323 292.464C281.323 288.14 278.433 284.635 274.868 284.635C271.303 284.635 268.413 288.14 268.413 292.464C268.413 296.788 271.303 300.293 274.868 300.293Z" fill="white"/>
<path d="M274.868 56.9945C274.265 56.9945 273.675 56.7776 273.174 56.3712C272.672 55.9648 272.281 55.3872 272.051 54.7114C271.82 54.0356 271.76 53.292 271.877 52.5745C271.995 51.8571 272.285 51.1981 272.712 50.6809C273.138 50.1637 273.681 49.8114 274.273 49.6687C274.864 49.526 275.477 49.5993 276.035 49.8792C276.592 50.1591 277.068 50.6331 277.403 51.2413C277.738 51.8495 277.917 52.5646 277.917 53.2961C277.915 54.2762 277.593 55.2156 277.022 55.9087C276.45 56.6018 275.676 56.9922 274.868 56.9945Z" fill="white"/>
<path d="M274.868 49.814C275.436 49.814 275.991 50.0182 276.463 50.4008C276.935 50.7834 277.303 51.3273 277.52 51.9635C277.737 52.5998 277.794 53.3 277.683 53.9754C277.573 54.6509 277.299 55.2713 276.898 55.7583C276.496 56.2453 275.985 56.5769 275.428 56.7113C274.871 56.8457 274.294 56.7767 273.769 56.5132C273.245 56.2496 272.796 55.8033 272.481 55.2307C272.165 54.658 271.997 53.9848 271.997 53.2961C271.998 52.3729 272.301 51.4879 272.839 50.8351C273.377 50.1823 274.107 49.8151 274.868 49.814ZM274.868 49.3814C274.229 49.3771 273.603 49.6031 273.07 50.0306C272.537 50.4581 272.12 51.068 271.873 51.783C271.626 52.4979 271.56 53.2857 271.682 54.0465C271.805 54.8073 272.111 55.5068 272.562 56.0565C273.012 56.6061 273.587 56.9811 274.214 57.1339C274.84 57.2867 275.49 57.2105 276.081 56.9148C276.672 56.6192 277.177 56.1174 277.532 55.4732C277.888 54.829 278.077 54.0713 278.077 53.2961C278.08 52.783 277.998 52.2745 277.838 51.7996C277.678 51.3248 277.442 50.8931 277.144 50.5293C276.845 50.1655 276.491 49.8768 276.1 49.6798C275.71 49.4828 275.291 49.3814 274.868 49.3814Z" fill="white"/>
<path d="M236 130.854H207.609C206.762 130.854 206.076 131.687 206.076 132.715V180.867C206.076 181.895 206.762 182.727 207.609 182.727H236C236.847 182.727 237.533 181.895 237.533 180.867V132.715C237.533 131.687 236.847 130.854 236 130.854Z" fill="white" stroke="white" stroke-miterlimit="10"/>
<path opacity="0.5" d="M232.038 143.926H211.571C210.165 143.926 209.025 145.309 209.025 147.015V157.297C209.025 159.002 210.165 160.385 211.571 160.385H232.038C233.444 160.385 234.584 159.002 234.584 157.297V147.015C234.584 145.309 233.444 143.926 232.038 143.926Z" fill="#6C63FF"/>
<path d="M228.646 167.099H214.963C214.63 167.099 214.36 167.426 214.36 167.83V168.924C214.36 169.328 214.63 169.655 214.963 169.655H228.646C228.979 169.655 229.249 169.328 229.249 168.924V167.83C229.249 167.426 228.979 167.099 228.646 167.099Z" fill="#6C63FF"/>
<path d="M289.182 130.854H260.792C259.945 130.854 259.259 131.687 259.259 132.715V180.867C259.259 181.895 259.945 182.727 260.792 182.727H289.182C290.029 182.727 290.716 181.895 290.716 180.867V132.715C290.716 131.687 290.029 130.854 289.182 130.854Z" fill="white" stroke="white" stroke-miterlimit="10"/>
<path opacity="0.5" d="M282.086 138.956H268.053C267.765 138.956 267.532 139.239 267.532 139.588V148.031C267.532 148.38 267.765 148.663 268.053 148.663H282.086C282.373 148.663 282.606 148.38 282.606 148.031V139.588C282.606 139.239 282.373 138.956 282.086 138.956Z" fill="#6C63FF"/>
<path d="M283.969 157.76H265.931C265.598 157.76 265.328 158.087 265.328 158.491V159.585C265.328 159.989 265.598 160.316 265.931 160.316H283.969C284.302 160.316 284.571 159.989 284.571 159.585V158.491C284.571 158.087 284.302 157.76 283.969 157.76Z" fill="#6C63FF"/>
<path d="M283.969 162.527H265.931C265.598 162.527 265.328 162.854 265.328 163.258V164.352C265.328 164.756 265.598 165.083 265.931 165.083H283.969C284.302 165.083 284.571 164.756 284.571 164.352V163.258C284.571 162.854 284.302 162.527 283.969 162.527Z" fill="#6C63FF"/>
<path d="M342.126 94.0046H313.736C312.889 94.0046 312.202 94.8374 312.202 95.8646V144.017C312.202 145.045 312.889 145.877 313.736 145.877H342.126C342.973 145.877 343.66 145.045 343.66 144.017V95.8646C343.66 94.8374 342.973 94.0046 342.126 94.0046Z" fill="white" stroke="white" stroke-miterlimit="10"/>
<path opacity="0.5" d="M337.651 102.054H318.211C317.924 102.054 317.691 102.337 317.691 102.686V113.016C317.691 113.364 317.924 113.647 318.211 113.647H337.651C337.938 113.647 338.171 113.364 338.171 113.016V102.686C338.171 102.337 337.938 102.054 337.651 102.054Z" fill="#6C63FF"/>
<path opacity="0.5" d="M337.651 118.903H318.211C317.924 118.903 317.691 119.186 317.691 119.534V129.864C317.691 130.213 317.924 130.496 318.211 130.496H337.651C337.938 130.496 338.171 130.213 338.171 129.864V119.534C338.171 119.186 337.938 118.903 337.651 118.903Z" fill="#6C63FF"/>
<path d="M321.407 139.839H317.42C316.665 139.839 316.054 140.581 316.054 141.496V141.759C316.054 142.674 316.665 143.416 317.42 143.416H321.407C322.161 143.416 322.772 142.674 322.772 141.759V141.496C322.772 140.581 322.161 139.839 321.407 139.839Z" fill="#6C63FF"/>
<path d="M329.926 139.839H325.939C325.185 139.839 324.573 140.581 324.573 141.496V141.759C324.573 142.674 325.185 143.416 325.939 143.416H329.926C330.68 143.416 331.292 142.674 331.292 141.759V141.496C331.292 140.581 330.68 139.839 329.926 139.839Z" fill="#6C63FF"/>
<path d="M338.446 139.839H334.459C333.705 139.839 333.093 140.581 333.093 141.496V141.759C333.093 142.674 333.705 143.416 334.459 143.416H338.446C339.2 143.416 339.812 142.674 339.812 141.759V141.496C339.812 140.581 339.2 139.839 338.446 139.839Z" fill="#6C63FF"/>
<path d="M342.051 167.704H313.661C312.814 167.704 312.127 168.537 312.127 169.564V217.717C312.127 218.744 312.814 219.577 313.661 219.577H342.051C342.898 219.577 343.585 218.744 343.585 217.717V169.564C343.585 168.537 342.898 167.704 342.051 167.704Z" fill="white" stroke="white" stroke-miterlimit="10"/>
<path opacity="0.5" d="M323.436 173.769H315.077C314.789 173.769 314.556 174.052 314.556 174.4V184.73C314.556 185.079 314.789 185.361 315.077 185.361H323.436C323.723 185.361 323.956 185.079 323.956 184.73V174.4C323.956 174.052 323.723 173.769 323.436 173.769Z" fill="#6C63FF"/>
<path d="M336.877 192.421H318.839C318.506 192.421 318.236 192.748 318.236 193.152V194.246C318.236 194.65 318.506 194.977 318.839 194.977H336.877C337.209 194.977 337.479 194.65 337.479 194.246V193.152C337.479 192.748 337.209 192.421 336.877 192.421Z" fill="#6C63FF"/>
<path d="M336.877 197.59H318.839C318.506 197.59 318.236 197.917 318.236 198.321V199.416C318.236 199.819 318.506 200.147 318.839 200.147H336.877C337.209 200.147 337.479 199.819 337.479 199.416V198.321C337.479 197.917 337.209 197.59 336.877 197.59Z" fill="#6C63FF"/>
<path d="M336.877 202.759H318.839C318.506 202.759 318.236 203.086 318.236 203.49V204.584C318.236 204.988 318.506 205.315 318.839 205.315H336.877C337.209 205.315 337.479 204.988 337.479 204.584V203.49C337.479 203.086 337.209 202.759 336.877 202.759Z" fill="#6C63FF"/>
<path d="M255.632 155.554L255.15 155.835L251.249 158.11L250.892 158.314C250.869 158.327 250.843 158.334 250.817 158.335C250.79 158.336 250.764 158.331 250.74 158.319C250.715 158.307 250.693 158.29 250.675 158.267C250.656 158.245 250.642 158.218 250.632 158.188C250.628 158.16 250.628 158.13 250.632 158.102V156.756C250.632 156.696 250.612 156.637 250.577 156.594C250.541 156.551 250.493 156.527 250.443 156.527H240.961C240.91 156.527 240.862 156.503 240.826 156.46C240.79 156.417 240.769 156.359 240.768 156.298V154.399C240.769 154.338 240.79 154.279 240.826 154.237C240.862 154.194 240.91 154.17 240.961 154.17H250.454C250.504 154.169 250.552 154.143 250.588 154.1C250.623 154.056 250.643 153.997 250.643 153.936V152.561C250.639 152.532 250.639 152.503 250.643 152.474C250.653 152.445 250.668 152.418 250.686 152.396C250.705 152.374 250.727 152.357 250.751 152.346C250.776 152.334 250.802 152.329 250.828 152.33C250.854 152.332 250.879 152.339 250.903 152.353L251.26 152.556L255.15 154.853L255.632 155.139C255.664 155.157 255.692 155.186 255.711 155.223C255.73 155.26 255.741 155.303 255.741 155.346C255.741 155.39 255.73 155.432 255.711 155.469C255.692 155.506 255.664 155.535 255.632 155.554Z" fill="white" stroke="white" stroke-miterlimit="10"/>
<path d="M308.422 143.887L308.108 144.411L305.555 148.633L305.33 149.009C305.314 149.034 305.294 149.055 305.272 149.07C305.249 149.086 305.224 149.096 305.198 149.099C305.172 149.103 305.146 149.1 305.121 149.091C305.096 149.083 305.072 149.068 305.052 149.048C305.034 149.029 305.019 149.005 305.009 148.979L304.489 147.794C304.464 147.739 304.424 147.698 304.375 147.68C304.326 147.661 304.274 147.666 304.228 147.694L295.848 153.105C295.826 153.12 295.802 153.129 295.777 153.132C295.752 153.135 295.727 153.132 295.703 153.123C295.679 153.114 295.657 153.099 295.638 153.08C295.618 153.061 295.603 153.037 295.591 153.01L294.856 151.328C294.844 151.301 294.837 151.272 294.835 151.242C294.832 151.211 294.835 151.181 294.842 151.152C294.849 151.123 294.861 151.096 294.877 151.073C294.893 151.049 294.913 151.03 294.935 151.016L303.315 145.613C303.337 145.599 303.357 145.58 303.373 145.557C303.389 145.533 303.401 145.506 303.408 145.478C303.415 145.449 303.418 145.418 303.415 145.388C303.413 145.358 303.406 145.329 303.394 145.302L302.862 144.086C302.849 144.062 302.841 144.034 302.841 144.004C302.837 143.973 302.84 143.94 302.847 143.91C302.854 143.879 302.867 143.851 302.884 143.827C302.902 143.803 302.923 143.783 302.947 143.77C302.971 143.756 302.997 143.749 303.023 143.749H303.404L307.727 143.559L308.262 143.537C308.295 143.537 308.328 143.548 308.357 143.569C308.387 143.59 308.41 143.619 308.427 143.655C308.443 143.691 308.451 143.731 308.451 143.772C308.45 143.813 308.44 143.853 308.422 143.887Z" fill="white" stroke="white" stroke-miterlimit="10"/>
<path d="M308.394 166.061H307.862H303.543H303.162C303.136 166.061 303.11 166.054 303.086 166.042C303.062 166.029 303.041 166.011 303.023 165.987C303.005 165.964 302.992 165.937 302.983 165.907C302.974 165.877 302.971 165.846 302.973 165.814C302.974 165.785 302.98 165.757 302.991 165.732L303.469 164.516C303.479 164.489 303.486 164.46 303.487 164.429C303.489 164.399 303.485 164.369 303.477 164.34C303.468 164.312 303.456 164.285 303.439 164.263C303.422 164.24 303.402 164.222 303.379 164.209L294.821 159.226C294.775 159.199 294.74 159.151 294.723 159.093C294.706 159.034 294.709 158.97 294.731 158.915L295.409 157.206C295.419 157.178 295.434 157.153 295.453 157.133C295.471 157.112 295.493 157.096 295.516 157.086C295.54 157.076 295.565 157.072 295.59 157.074C295.615 157.076 295.64 157.084 295.662 157.098L304.221 162.085C304.267 162.111 304.32 162.114 304.367 162.094C304.415 162.074 304.455 162.032 304.478 161.977L304.97 160.736C304.983 160.7 305.004 160.669 305.03 160.646C305.056 160.623 305.086 160.609 305.118 160.604C305.151 160.6 305.183 160.606 305.213 160.621C305.242 160.637 305.268 160.661 305.287 160.693L305.526 161.052L308.212 165.17L308.543 165.68C308.568 165.714 308.584 165.755 308.589 165.8C308.594 165.844 308.588 165.89 308.572 165.93C308.556 165.971 308.531 166.005 308.499 166.028C308.467 166.051 308.431 166.063 308.394 166.061Z" fill="white" stroke="white" stroke-miterlimit="10"/>
<path d="M152.095 262.414L152.066 263.681L150.247 341.573H147.188L148.689 263.681L148.717 262.219L152.095 262.414Z" fill="#504F60"/>
<path opacity="0.1" d="M152.095 262.414L152.066 263.681L150.247 341.573H147.188L148.689 263.681L148.717 262.219L152.095 262.414Z" fill="black"/>
<path d="M169.801 328.397L167.511 328.388L133.472 328.302L131.66 328.297L132.623 324.686H169.558L169.801 328.397Z" fill="#504F60"/>
<path opacity="0.1" d="M152.095 262.414L152.066 263.681H148.689L148.717 262.219L152.095 262.414Z" fill="black"/>
<path d="M153.385 260.511H147.712V263.097H153.385V260.511Z" fill="#504F60"/>
<path opacity="0.1" d="M133.775 324.686L133.472 328.302L131.66 328.297L132.623 324.686H133.775Z" fill="black"/>
<path d="M138.661 260.463L138.564 261.583L131.015 351.915L127.556 351.721L135.512 261.583L135.601 260.558L138.661 260.463Z" fill="#504F60"/>
<path opacity="0.1" d="M169.801 328.397L167.511 328.388L167.201 324.686H169.558L169.801 328.397Z" fill="black"/>
<path d="M173.424 351.721L169.961 351.915L162.411 261.583L162.319 260.463L165.375 260.558L165.464 261.583L173.424 351.721Z" fill="#504F60"/>
<path d="M188.149 171.394H111.864V260.117H188.149V171.394Z" fill="white"/>
<path d="M203.498 171.394H96.6046C95.7911 171.394 95.1317 172.194 95.1317 173.181V258.33C95.1317 259.317 95.7911 260.117 96.6046 260.117H203.498C204.311 260.117 204.97 259.317 204.97 258.33V173.181C204.97 172.194 204.311 171.394 203.498 171.394Z" fill="white"/>
<path d="M151.492 141.725V163.15H148.518V141.725C148.518 141.246 148.674 140.787 148.953 140.449C149.232 140.111 149.61 139.921 150.005 139.921C150.399 139.921 150.777 140.111 151.056 140.449C151.335 140.787 151.492 141.246 151.492 141.725Z" fill="#504F60"/>
<path opacity="0.1" d="M151.495 161.198H148.518V163.149H151.495V161.198Z" fill="black"/>
<path d="M152.662 162.661V169.737H147.352V162.661C147.352 162.431 147.427 162.211 147.56 162.049C147.694 161.887 147.876 161.796 148.065 161.796H151.927C152.022 161.792 152.117 161.812 152.206 161.854C152.296 161.896 152.377 161.959 152.445 162.04C152.514 162.12 152.568 162.217 152.605 162.323C152.643 162.43 152.662 162.545 152.662 162.661Z" fill="#504F60"/>
<path opacity="0.1" d="M150.005 167.639C150.627 167.639 151.132 167.027 151.132 166.272C151.132 165.517 150.627 164.906 150.005 164.906C149.382 164.906 148.878 165.517 148.878 166.272C148.878 167.027 149.382 167.639 150.005 167.639Z" fill="black"/>
<path d="M150.005 167.345C150.627 167.345 151.132 166.733 151.132 165.978C151.132 165.224 150.627 164.612 150.005 164.612C149.382 164.612 148.878 165.224 148.878 165.978C148.878 166.733 149.382 167.345 150.005 167.345Z" fill="#3F3D56"/>
<path opacity="0.1" d="M152.662 168.859H147.352V169.737H152.662V168.859Z" fill="black"/>
<path opacity="0.1" d="M154.833 170.031H145.176V171.982H154.833V170.031Z" fill="black"/>
<path d="M154.833 169.443H145.176V171.394H154.833V169.443Z" fill="#504F60"/>
<path opacity="0.1" d="M130.854 257.807H170.646C171.213 257.807 171.758 258.081 172.159 258.567C172.56 259.054 172.785 259.714 172.785 260.402H128.722C128.722 259.716 128.946 259.057 129.346 258.57C129.746 258.084 130.288 257.809 130.854 257.807Z" fill="black"/>
<path opacity="0.1" d="M135.601 260.558L138.661 260.463L138.564 261.583H135.512L135.601 260.558Z" fill="black"/>
<path opacity="0.1" d="M153.385 260.511H147.712V261.583H153.385V260.511Z" fill="black"/>
<path opacity="0.1" d="M165.464 261.583H162.411L162.319 260.463L165.375 260.558L165.464 261.583Z" fill="black"/>
<path d="M130.854 258.413H170.646C171.213 258.413 171.758 258.686 172.159 259.173C172.56 259.66 172.785 260.32 172.785 261.008H128.722C128.722 260.32 128.947 259.66 129.348 259.173C129.75 258.686 130.294 258.413 130.861 258.413H130.854Z" fill="#504F60"/>
<path d="M185.485 181.815C185.566 181.799 185.648 181.807 185.726 181.837C185.804 181.866 185.875 181.918 185.934 181.986C185.993 182.055 186.039 182.139 186.066 182.232C186.094 182.326 186.104 182.425 186.095 182.524C185.578 188.58 185.909 194.783 186.469 200.826C186.729 203.59 187.082 206.514 188.092 208.564C188.156 208.689 188.184 208.836 188.171 208.982C188.158 209.127 188.105 209.264 188.02 209.369C187.739 209.635 187.385 209.763 187.029 209.728L171.113 209.836C171.032 209.837 170.952 209.815 170.88 209.773C170.807 209.731 170.743 209.669 170.693 209.592C170.642 209.515 170.607 209.426 170.59 209.33C170.573 209.234 170.573 209.135 170.592 209.04C171.873 202.422 171.598 195.198 171.085 188.333C170.831 184.955 170.685 183.143 172.764 182.905C174.904 182.671 177.044 182.563 179.183 182.347C179.697 182.295 183.812 182.148 185.485 181.815Z" fill="white" stroke="#33313F" stroke-width="3" stroke-miterlimit="10"/>
<path d="M173.306 221.476C173.225 221.461 173.143 221.469 173.065 221.498C172.987 221.528 172.916 221.579 172.857 221.648C172.798 221.717 172.752 221.801 172.725 221.894C172.697 221.988 172.687 222.087 172.696 222.186C173.214 228.242 172.882 234.445 172.318 240.488C172.062 243.252 171.709 246.176 170.699 248.23C170.635 248.354 170.606 248.5 170.619 248.646C170.632 248.791 170.686 248.927 170.771 249.031C171.053 249.297 171.406 249.425 171.762 249.39L187.678 249.502C187.759 249.501 187.838 249.479 187.911 249.436C187.983 249.393 188.047 249.33 188.097 249.254C188.147 249.177 188.182 249.087 188.199 248.992C188.217 248.896 188.217 248.797 188.199 248.702C186.918 242.084 187.193 234.86 187.707 227.995C187.96 224.617 188.106 222.804 186.027 222.567C183.948 222.329 181.747 222.225 179.608 222.009C179.094 221.957 174.979 221.81 173.306 221.476Z" fill="white" stroke="#33313F" stroke-width="3" stroke-miterlimit="10"/>
<path d="M177.981 232.619C179.831 232.514 181.684 232.542 183.53 232.701C183.65 232.715 183.762 232.779 183.848 232.881C183.934 232.984 183.988 233.119 184.001 233.264L184.176 235.033C184.185 235.072 184.186 235.114 184.178 235.154C184.171 235.194 184.155 235.231 184.133 235.262C184.094 235.296 184.046 235.312 183.998 235.305C183.22 235.331 182.443 235.223 181.669 235.305C181.187 235.353 180.71 235.465 180.242 235.53C179.453 235.615 178.659 235.632 177.867 235.582C176.752 235.605 175.639 235.439 174.562 235.089C174.562 235.089 174.626 233.623 174.626 233.484C174.626 232.801 174.608 232.74 175.189 232.723L177.981 232.619Z" stroke="#33313F" stroke-width="2" stroke-miterlimit="10" stroke-linecap="round"/>
<path d="M177.981 240.596C179.831 240.701 181.684 240.672 183.53 240.509C183.65 240.495 183.762 240.432 183.848 240.329C183.934 240.227 183.988 240.092 184.001 239.947L184.176 238.182C184.185 238.142 184.186 238.099 184.178 238.059C184.171 238.018 184.155 237.98 184.133 237.948C184.094 237.914 184.046 237.899 183.998 237.905C183.22 237.879 182.443 237.992 181.669 237.905C181.188 237.862 180.71 237.749 180.242 237.684C179.453 237.598 178.659 237.581 177.867 237.632C176.752 237.609 175.639 237.775 174.562 238.126C174.562 238.126 174.626 239.588 174.626 239.73C174.626 240.414 174.608 240.47 175.189 240.492L177.981 240.596Z" stroke="#33313F" stroke-width="2" stroke-miterlimit="10" stroke-linecap="round"/>
<path d="M177.981 243.719C179.831 243.613 181.684 243.642 183.53 243.805C183.65 243.819 183.762 243.883 183.848 243.985C183.934 244.087 183.988 244.222 184.001 244.367L184.176 246.132C184.185 246.172 184.186 246.215 184.178 246.255C184.171 246.296 184.155 246.334 184.133 246.366C184.094 246.4 184.046 246.415 183.998 246.409C183.22 246.435 182.443 246.323 181.669 246.409C181.188 246.452 180.71 246.569 180.242 246.634C179.453 246.717 178.659 246.733 177.867 246.682C176.752 246.706 175.639 246.542 174.562 246.193C174.562 246.193 174.626 244.726 174.626 244.584C174.626 243.9 174.608 243.844 175.189 243.827L177.981 243.719Z" stroke="#33313F" stroke-width="2" stroke-miterlimit="10" stroke-linecap="round"/>
<path d="M180.324 206.696C180.487 207.171 180.542 207.691 180.481 208.201C180.482 208.242 180.473 208.282 180.456 208.318C180.437 208.341 180.413 208.359 180.387 208.37C180.361 208.381 180.334 208.385 180.307 208.383L176.919 208.543C176.919 208.543 177.108 207.331 177.133 207.245C177.25 206.752 177.546 206.882 177.928 206.856L180.324 206.696Z" fill="white" stroke="#33313F" stroke-width="2" stroke-miterlimit="10" stroke-linecap="round"/>
<path d="M185.442 206.696C185.604 207.171 185.657 207.692 185.595 208.201C185.597 208.241 185.59 208.282 185.574 208.318C185.554 208.34 185.53 208.358 185.505 208.369C185.479 208.38 185.451 208.385 185.424 208.383L182.033 208.543C182.033 208.543 182.225 207.331 182.25 207.245C182.364 206.752 182.66 206.882 183.046 206.856L185.442 206.696Z" fill="white" stroke="#33313F" stroke-width="2" stroke-miterlimit="10" stroke-linecap="round"/>
<path d="M183.399 186.045L183.855 190.803C183.87 190.975 183.857 191.149 183.816 191.315C183.775 191.48 183.707 191.634 183.617 191.768C183.526 191.901 183.414 192.011 183.288 192.091C183.162 192.171 183.024 192.22 182.881 192.235C179.987 192.513 177.078 192.489 174.187 192.166C173.93 192.136 173.691 191.994 173.513 191.767C173.335 191.539 173.232 191.242 173.221 190.929C173.166 190.08 173.064 189.238 172.914 188.407C172.796 187.542 172.668 186.707 173.51 186.452C174.351 186.196 175.503 186.378 176.423 186.356C177.526 186.33 178.626 186.293 179.722 186.244C180.029 186.244 183.399 186.023 183.399 186.045Z" stroke="#33313F" stroke-width="3" stroke-miterlimit="10"/>
<path d="M183.399 203.235L183.848 198.477C183.863 198.305 183.85 198.131 183.809 197.966C183.768 197.8 183.7 197.646 183.61 197.512C183.519 197.379 183.407 197.269 183.281 197.189C183.155 197.109 183.016 197.06 182.874 197.045C179.98 196.768 177.071 196.79 174.18 197.11C173.922 197.14 173.682 197.282 173.505 197.511C173.327 197.739 173.224 198.038 173.213 198.351C173.159 199.2 173.057 200.042 172.907 200.873C172.789 201.738 172.661 202.573 173.502 202.828C174.344 203.084 175.496 202.902 176.416 202.924C177.518 202.95 178.616 202.984 179.715 203.036C180.028 203.049 183.399 203.27 183.399 203.235Z" stroke="#33313F" stroke-width="3" stroke-miterlimit="10"/>
<path d="M178.816 224.677C178.697 226.26 178.622 227.846 178.591 229.435C177.282 229.422 175.978 229.241 174.701 228.894C174.6 228.889 174.502 228.856 174.413 228.799C174.323 228.742 174.246 228.662 174.185 228.565C174.124 228.468 174.081 228.355 174.06 228.236C174.039 228.116 174.04 227.993 174.062 227.874C174.037 226.887 173.609 224.686 174.754 224.547C175.097 224.504 178.813 224.755 178.816 224.677Z" stroke="#33313F" stroke-width="2" stroke-miterlimit="10" stroke-linecap="round"/>
<path d="M115.848 203.067C116.016 203.045 116.185 203.068 116.345 203.135C116.504 203.203 116.649 203.312 116.769 203.456C116.889 203.599 116.982 203.774 117.039 203.966C117.097 204.158 117.119 204.364 117.103 204.568C116.693 210.325 117.018 216.221 117.552 221.961C117.791 224.513 118.109 227.199 118.95 229.211C119.024 229.383 119.059 229.576 119.054 229.769C119.048 229.963 119.001 230.152 118.918 230.318C118.835 230.484 118.719 230.621 118.579 230.717C118.44 230.812 118.283 230.862 118.123 230.863L102.332 230.976C102.238 230.976 102.144 230.951 102.059 230.902C101.974 230.853 101.899 230.782 101.84 230.693C101.78 230.604 101.738 230.5 101.717 230.389C101.695 230.277 101.695 230.162 101.715 230.05C102.967 223.466 102.692 216.277 102.182 209.469C101.925 206.09 101.783 204.278 103.858 204.04C105.998 203.811 108.138 203.703 110.26 203.482C110.712 203.439 113.951 203.318 115.848 203.067Z" fill="white" stroke="#33313F" stroke-width="3" stroke-miterlimit="10" stroke-linecap="round"/>
<path d="M137.816 202.958C137.729 202.942 137.641 202.951 137.557 202.983C137.474 203.015 137.398 203.07 137.335 203.144C137.272 203.218 137.225 203.308 137.195 203.408C137.166 203.508 137.156 203.614 137.166 203.72C137.676 209.745 137.345 215.94 136.785 221.961C136.528 224.725 136.175 227.636 135.169 229.691C135.099 229.836 135.075 230.008 135.103 230.173C135.13 230.339 135.208 230.486 135.319 230.586C135.589 230.794 135.906 230.891 136.225 230.863L152.098 230.975C152.185 230.976 152.271 230.951 152.349 230.905C152.428 230.858 152.496 230.791 152.549 230.707C152.603 230.624 152.64 230.527 152.657 230.423C152.675 230.32 152.673 230.213 152.651 230.11C151.385 223.505 151.656 216.29 152.169 209.455C152.423 206.077 152.569 204.265 150.493 204.027C148.354 203.798 146.214 203.689 144.074 203.469C143.55 203.43 139.52 203.287 137.816 202.958Z" fill="white" stroke="#33313F" stroke-width="3" stroke-miterlimit="10"/>
<path d="M106.394 206.89L114.468 219.954" stroke="#33313F" stroke-width="2" stroke-miterlimit="10" stroke-linecap="round"/>
<path d="M114.468 205.913L106.661 220.607" stroke="#33313F" stroke-width="2" stroke-miterlimit="10" stroke-linecap="round"/>
<path d="M142.423 207.504L146.82 214.62" stroke="#33313F" stroke-width="2" stroke-miterlimit="10" stroke-linecap="round"/>
<path d="M146.82 206.968L142.569 214.975" stroke="#33313F" stroke-width="2" stroke-miterlimit="10" stroke-linecap="round"/>
<path d="M109.061 224.128C110.912 224.023 112.766 224.051 114.614 224.21C114.733 224.226 114.845 224.29 114.93 224.392C115.016 224.494 115.07 224.628 115.085 224.773L115.256 226.542C115.264 226.582 115.265 226.624 115.258 226.664C115.252 226.704 115.237 226.743 115.217 226.775C115.176 226.805 115.129 226.82 115.081 226.819C114.304 226.845 113.523 226.732 112.749 226.819C112.267 226.862 111.793 226.974 111.322 227.039C110.533 227.124 109.739 227.141 108.947 227.091C107.833 227.115 106.721 226.949 105.645 226.598C105.624 226.598 105.709 225.136 105.709 224.993C105.709 224.31 105.688 224.254 106.269 224.232L109.061 224.128Z" stroke="#33313F" stroke-width="2" stroke-miterlimit="10" stroke-linecap="round"/>
<path d="M142.983 217.596C144.834 217.491 146.688 217.52 148.536 217.683C148.655 217.697 148.767 217.76 148.853 217.863C148.939 217.965 148.993 218.1 149.006 218.245L149.177 220.01C149.186 220.05 149.187 220.092 149.18 220.132C149.173 220.173 149.159 220.211 149.138 220.243C149.099 220.277 149.051 220.293 149.003 220.287C148.225 220.313 147.444 220.2 146.67 220.287C146.189 220.33 145.715 220.447 145.244 220.507C144.454 220.594 143.661 220.611 142.869 220.559C141.753 220.583 140.641 220.417 139.563 220.066C139.545 220.066 139.627 218.604 139.627 218.461C139.627 217.778 139.609 217.722 140.191 217.7L142.983 217.596Z" stroke="#33313F" stroke-width="2" stroke-miterlimit="10" stroke-linecap="round"/>
<path d="M145.811 222.497C143.961 222.392 142.109 222.42 140.262 222.579C140.142 222.593 140.03 222.657 139.944 222.759C139.859 222.861 139.804 222.996 139.791 223.141L139.627 224.906C139.617 224.946 139.615 224.988 139.622 225.029C139.629 225.07 139.644 225.108 139.666 225.14C139.706 225.174 139.754 225.189 139.802 225.183C140.579 225.209 141.357 225.101 142.134 225.183C142.616 225.226 143.09 225.343 143.561 225.408C144.35 225.49 145.144 225.508 145.936 225.46C147.051 225.484 148.164 225.318 149.242 224.967C149.259 224.967 149.177 223.501 149.177 223.362C149.177 222.674 149.199 222.618 148.617 222.601L145.811 222.497Z" stroke="#33313F" stroke-width="2" stroke-miterlimit="10" stroke-linecap="round"/>
<path d="M122.734 219.295C122.734 219.295 127.98 218.973 128.921 219.295" stroke="#33313F" stroke-width="3" stroke-miterlimit="10"/>
<path d="M128.929 215.87C128.929 215.87 131.214 218.643 131.214 219.296C131.214 219.949 128.255 222.233 128.255 222.233" stroke="#33313F" stroke-width="3" stroke-miterlimit="10"/>
<path d="M157.044 213.379C157.044 213.379 161.798 210.679 162.772 210.55" stroke="#33313F" stroke-width="3" stroke-miterlimit="10"/>
<path d="M161.709 207.379C161.709 207.379 164.687 208.902 164.89 209.503C165.093 210.104 163.064 213.578 163.064 213.578" stroke="#33313F" stroke-width="3" stroke-miterlimit="10"/>
<path d="M156.994 220.291C156.994 220.291 161.827 222.778 162.558 223.574" stroke="#33313F" stroke-width="3" stroke-miterlimit="10"/>
<path d="M163.792 220.49C163.792 220.49 164.862 224.197 164.612 224.785C164.362 225.374 160.892 225.858 160.892 225.858" stroke="#33313F" stroke-width="3" stroke-miterlimit="10"/>
<path d="M175.749 206.696C175.911 207.171 175.964 207.692 175.902 208.201C175.904 208.241 175.897 208.282 175.881 208.318C175.861 208.34 175.837 208.358 175.812 208.369C175.786 208.38 175.758 208.385 175.731 208.383L172.34 208.543C172.34 208.543 172.532 207.331 172.557 207.245C172.671 206.752 172.971 206.882 173.353 206.856L175.749 206.696Z" fill="white" stroke="#33313F" stroke-width="2" stroke-miterlimit="10" stroke-linecap="round"/>
<path d="M111.682 243.974L112.881 242.62L111.811 242.568L111.251 243.61L111.682 243.974Z" fill="#33313F"/>
<path d="M103.063 253.455L104.333 251.479L104.614 251.124L108.501 246.184L109.824 244.506L110.445 244.415L111.337 243.342L111.861 243.9L110.994 245.129L111.008 245.773L109.657 247.551L105.841 252.577L105.595 252.897L104.062 254.619L103.063 253.455Z" fill="#65617D"/>
<path d="M104.614 251.124L108.501 246.184L109.657 247.551L105.841 252.578L104.614 251.124Z" fill="#33313F"/>
<path d="M110.481 253.027C109.351 251.752 108.368 250.297 107.56 248.702C105.848 245.466 102.988 243.719 101.027 242.849V241.798L101.148 241.768L101.094 240.79H101.148L101.009 238.195V238.173L100.303 225.296C100.303 225.296 97.7885 216.709 102.257 208.789C106.725 200.869 102.535 193.273 98.3342 190.302C98.3342 190.302 96.3799 177.757 98.056 174.786C95.7824 173.198 93.4395 171.761 91.0377 170.482C90.9985 170.326 90.9664 170.17 90.9343 170.006C90.888 168.838 90.8273 167.67 90.7738 166.502C90.8297 165.895 90.9215 165.294 91.0484 164.703C91.1019 164.456 91.1626 164.209 91.2267 163.954C93.2239 163.029 94.9442 161.393 96.1627 159.263C97.3812 157.132 98.041 154.604 98.056 152.011C98.0569 150.498 97.8322 148.998 97.3927 147.582C97.6182 147.132 97.7899 146.645 97.9027 146.137C98.1701 144.8 97.867 143.373 97.2394 142.019C96.1196 139.086 93.3272 136.339 91.3016 135.323C88.3988 133.895 84.0302 134.233 81.006 134.674C79.3085 134.921 77.3721 135.608 76.7587 137.494C76.534 138.186 76.5305 138.952 76.3736 139.657C75.7388 142.538 72.9964 143.879 71.3024 146.085C69.8046 148.032 69.1627 150.666 68.6635 153.231C67.2729 160.583 66.9411 168.171 67.6827 175.659C67.8539 177.39 68.0822 179.098 68.3247 180.811C67.3047 182.541 66.3847 185.6 66.8055 190.911L63.4532 210.057L62.0589 221.282C62.0589 221.282 61.2208 225.901 64.5552 229.864C66.6949 232.39 69.2804 236.659 70.8745 239.423C70.1804 241.871 69.8366 244.444 69.8581 247.032C69.8938 248.209 69.9473 249.346 70.015 250.428C70.1562 252.725 70.5152 254.995 71.0849 257.193C71.4772 261.804 72.251 267.7 73.7667 271.468L74.323 291.603C74.323 291.603 73.4849 310.091 71.8267 313.72C70.1684 317.349 75.4535 348.053 75.4535 348.053V352.344L74.5619 355.519L74.3373 355.315C70.1506 361.588 74.3373 363.897 74.3373 363.897C74.3373 363.897 75.4785 363.962 77.3008 364.049C77.1461 364.929 77.2374 365.846 77.5603 366.656C77.8831 367.466 78.4192 368.122 79.0839 368.522C79.0839 368.522 102.81 369.841 107 368.522C111.19 367.202 110.071 362.578 107.835 362.898C106.982 363.028 105.723 362.755 104.493 362.371C105.795 360.532 104.753 358.045 103.091 358.278C100.859 358.607 95.8343 356.211 95.8343 356.211L95.8093 356.25C95.6489 356.176 95.4845 356.115 95.3172 356.068C93.4506 355.559 91.6068 354.934 89.7931 354.195C88.7233 351.414 86.227 343.939 88.01 338.143C88.816 335.521 89.0799 332.035 89.0799 328.652C89.1225 318.448 90.3604 308.302 92.7566 298.52L96.1053 284.678C96.1053 284.678 100.852 267.838 101.13 263.219L101.112 256.497C105.035 259.524 108.155 258.616 110.145 257.202C110.436 256.994 110.681 256.706 110.863 256.361C111.044 256.017 111.155 255.625 111.188 255.218C111.22 254.811 111.173 254.401 111.051 254.02C110.928 253.639 110.732 253.299 110.481 253.027ZM73.2246 217.99C73.3209 217.505 73.3994 216.978 73.4671 216.42C74.1233 216.42 74.783 216.42 75.4392 216.394C76.2554 218.405 76.5985 220.65 76.4306 222.882C74.9186 222.315 72.6576 220.927 73.2246 218.011V217.99Z" fill="url(#paint0_linear)"/>
<path d="M75.8778 350.739L74.808 354.632L78.2993 358.867L89.8502 362.124L98.1772 361.146L97.6388 357.56C97.4786 356.791 97.147 356.09 96.6803 355.534C96.2136 354.977 95.6297 354.588 94.9926 354.407C91.5691 353.429 85.043 351.206 83.67 348.113L75.8778 350.739Z" fill="#DB8B8B"/>
<path opacity="0.1" d="M75.8778 350.739L74.808 354.632L78.2993 358.867L89.8502 362.124L98.1772 361.146L97.6388 357.56C97.4786 356.791 97.147 356.09 96.6803 355.534C96.2136 354.977 95.6297 354.588 94.9926 354.407C91.5691 353.429 85.043 351.206 83.67 348.113L75.8778 350.739Z" fill="black"/>
<path d="M95.4884 360.169L93.8764 357.573L95.4884 354.545C95.4884 354.545 100.321 356.911 102.471 356.587C104.621 356.263 105.681 360.822 101.665 362.124C97.6495 363.426 74.8044 362.124 74.8044 362.124C74.8044 362.124 70.7747 359.844 74.8044 353.654L78.2957 356.911C78.2957 356.911 84.2049 360.805 87.1613 360.169H95.4884Z" fill="#2E3037"/>
<path d="M102.738 365.71L94.4114 366.688L82.8605 363.426L79.3585 359.191L79.6438 358.157L80.0432 356.704L80.4355 355.281L88.2241 352.686C88.6195 353.466 89.1607 354.122 89.8039 354.602C92.3323 356.7 96.8792 358.218 99.5467 358.975C99.6573 359.01 99.7714 359.049 99.8784 359.096C100.443 359.324 100.951 359.721 101.356 360.25C101.76 360.779 102.048 361.424 102.193 362.124L102.738 365.71Z" fill="#DB8B8B"/>
<path opacity="0.1" d="M102.738 365.71L94.4114 366.687L82.8605 363.426L79.3585 359.191L79.6438 358.157L82.8534 361.146C82.8534 361.146 88.7661 365.039 91.7189 364.403H100.042L98.4305 361.808L99.8784 359.096C100.443 359.324 100.951 359.721 101.356 360.25C101.76 360.779 102.048 361.424 102.193 362.124L102.738 365.71Z" fill="black"/>
<path d="M100.042 364.732L98.4304 362.137L100.042 359.109C100.042 359.109 104.878 361.475 107.025 361.151C109.172 360.826 110.235 365.385 106.223 366.692C102.211 367.998 79.3584 366.692 79.3584 366.692C79.3584 366.692 75.3286 364.408 79.3584 358.218L82.8497 361.475C82.8497 361.475 88.7625 365.368 91.7153 364.736L100.042 364.732Z" fill="#2E3037"/>
<path d="M93.338 175.759C93.338 175.759 80.4462 177.385 82.3256 170.871C82.8523 169.024 82.9884 167.045 82.7214 165.118C82.3875 162.728 81.6095 160.462 80.4462 158.491L92.532 160.771C91.8077 162.239 91.2567 163.823 90.8951 165.477C89.4544 172.393 93.338 175.759 93.338 175.759Z" fill="#DB8B8B"/>
<path d="M71.3131 250.043C71.3131 250.043 71.5806 264.053 74.2659 270.897L74.8044 290.768C74.8044 290.768 73.9985 309.018 72.3865 312.6C70.7746 316.181 75.8778 346.487 75.8778 346.487V351.699C75.8778 351.699 84.4724 355.592 86.8903 351.046L84.4724 312.275L85.5422 258.517L71.3131 250.043Z" fill="#35323E"/>
<path opacity="0.1" d="M71.3096 250.043C71.3096 250.043 71.577 264.053 74.2624 270.897L74.8009 290.768C74.8009 290.768 73.9949 309.018 72.383 312.6C70.7711 316.181 75.8743 346.487 75.8743 346.487V351.699C75.8743 351.699 84.4688 355.592 86.8867 351.046L84.4688 312.275L85.5387 258.517L71.3096 250.043Z" fill="black"/>
<path d="M65.9389 205.082L64.327 210.294L62.9861 221.372C62.8046 222.916 62.9293 224.489 63.3498 225.962C63.7703 227.435 64.4746 228.765 65.404 229.842C68.6136 233.735 72.9251 241.897 72.9251 241.897L78.0283 223.328C78.0283 223.328 72.9251 222.35 73.7489 218.115C74.5727 213.88 74.2838 206.06 74.2838 206.06L65.9389 205.082Z" fill="#6C63FF"/>
<path opacity="0.1" d="M89.8146 354.593C86.3661 361.172 81.0061 357.444 80.054 356.704L80.4462 355.281L88.2348 352.686C88.6311 353.463 89.1722 354.116 89.8146 354.593Z" fill="black"/>
<path d="M100.592 262.752C100.321 267.311 95.7558 283.947 95.7558 283.947L92.5462 297.62C90.2314 307.281 89.0336 317.285 88.9871 327.346C88.9871 330.681 88.7339 334.124 87.9601 336.711C85.8204 343.879 90.0998 353.654 90.0998 353.654C86.341 361.8 79.8933 356.25 79.8933 356.25V351.059C79.8933 351.059 74.8044 322.7 76.1488 317.163C77.4933 311.627 78.0318 296.634 78.0318 296.634V269.595C73.7257 264.392 71.1089 257.481 70.6605 250.129C70.5963 249.061 70.5428 247.941 70.5107 246.777C70.2932 239.423 74.4335 230.807 76.0526 227.744C76.4448 227 76.6873 226.585 76.6873 226.585L100.399 237.996L100.452 238.022V239.134V241.599L100.592 262.752Z" fill="#35323E"/>
<path opacity="0.1" d="M92.532 160.771C91.8077 162.239 91.2567 163.823 90.8951 165.477C89.5823 166.084 88.1823 166.365 86.7782 166.303C85.3742 166.242 83.9946 165.838 82.7214 165.118C82.3875 162.728 81.6095 160.462 80.4462 158.491L92.532 160.771Z" fill="black"/>
<path d="M87.1613 165.659C92.9478 165.659 97.6388 159.969 97.6388 152.95C97.6388 145.931 92.9478 140.241 87.1613 140.241C81.3748 140.241 76.6838 145.931 76.6838 152.95C76.6838 159.969 81.3748 165.659 87.1613 165.659Z" fill="#DB8B8B"/>
<path opacity="0.1" d="M100.592 241.573L100.474 241.599C89.2119 244.406 75.0791 230.171 75.0791 230.171C75.4591 229.396 75.786 228.584 76.0562 227.744C76.4485 227 76.691 226.585 76.691 226.585L100.399 237.996L100.46 239.134L100.592 241.573Z" fill="black"/>
<path d="M97.6351 175.434C97.6351 175.434 82.593 164.356 77.7572 168.916L71.0421 179.34C71.0421 179.34 66.7448 180.971 67.5508 191.396L64.3412 210.295L74.0091 213.227C74.0091 213.227 79.6508 219.742 75.079 229.193C75.079 229.193 89.3152 243.528 100.599 240.596L99.7856 225.296C99.7856 225.296 97.3677 216.822 101.665 209.006C105.962 201.189 101.932 193.693 97.9062 190.76C97.9026 190.747 96.0232 178.363 97.6351 175.434Z" fill="#6C63FF"/>
<path d="M98.4411 241.897C98.4411 241.897 104.083 243.195 106.768 248.416C107.543 249.984 108.49 251.417 109.582 252.677C109.824 252.949 110.012 253.286 110.129 253.661C110.246 254.035 110.291 254.438 110.258 254.837C110.226 255.236 110.117 255.62 109.942 255.96C109.766 256.3 109.528 256.585 109.247 256.795C107.107 258.352 103.641 259.308 99.2613 254.931C91.726 247.439 98.4411 241.897 98.4411 241.897Z" fill="#DB8B8B"/>
<path opacity="0.1" d="M90.1141 181.607C90.1141 181.607 84.7434 180.954 83.399 197.897C82.0545 214.841 79.9077 218.747 79.9077 218.747C79.9077 218.747 78.5632 227.545 81.7871 232.758C85.0109 237.97 91.1875 249.087 91.1875 249.087C91.1875 249.087 97.9062 251.371 99.2471 243.221L90.9201 224.327C90.9201 224.327 89.5792 217.808 92.7995 213.249C96.0197 208.69 98.4412 178.363 90.1141 181.607Z" fill="black"/>
<path d="M90.6527 180.646C90.6527 180.646 85.2785 179.993 83.9376 196.937C82.5967 213.88 80.4463 217.786 80.4463 217.786C80.4463 217.786 79.1018 226.593 82.3256 231.784C85.5495 236.975 91.7261 248.074 91.7261 248.074C91.7261 248.074 98.4413 250.358 99.7857 242.213L91.4587 223.314C91.4587 223.314 90.1142 216.796 93.3381 212.236C96.5619 207.677 98.9726 177.385 90.6527 180.646Z" fill="#6C63FF"/>
<path opacity="0.1" d="M95.0854 192.854C95.0854 192.854 95.6203 202.954 93.2024 208.495C90.7846 214.036 90.7846 221.199 93.2024 225.11" fill="black"/>
<path opacity="0.1" d="M96.4262 180.482C96.4262 180.482 94.2865 177.887 88.0992 177.549C81.9118 177.212 79.2372 174.954 79.2372 174.954" fill="black"/>
<path opacity="0.1" d="M81.4982 136.53C79.8649 136.772 77.9998 137.451 77.4114 139.315C77.1939 139.999 77.1903 140.751 77.0369 141.478C76.4271 144.324 73.7881 145.648 72.1584 147.824C70.7319 149.744 70.0864 152.344 69.6193 154.875C68.278 162.131 67.9537 169.609 68.66 176.996C69.1842 182.399 70.254 187.715 70.5572 193.143C70.8603 198.572 70.3075 204.282 67.8611 208.841C66.7913 210.805 65.4218 212.526 64.6765 214.685C66.2171 216.199 68.3426 216.415 70.3254 216.497C72.6363 216.593 74.9471 216.593 77.258 216.497C78.4705 216.445 79.7365 216.35 80.7814 215.606C81.5554 215.006 82.1919 214.179 82.6323 213.201C83.9518 210.48 84.287 207.21 84.2299 204.053C84.1729 200.895 83.7628 197.759 83.7128 194.601C83.6879 192.871 83.7984 191.054 84.6151 189.644C85.2035 188.627 86.0986 187.944 86.8654 187.118C89.7433 184.029 90.7275 179.072 90.8238 174.413C90.9201 169.755 90.2889 165.087 90.6134 160.446C90.7382 158.625 91.2981 156.445 92.7745 156.09C93.2381 155.978 93.7338 156.09 94.1761 155.874C95.36 155.324 95.2459 153.3 95.5811 151.821C95.9627 150.155 97.1324 148.871 97.4605 147.192C98.2344 143.252 94.0976 138.541 91.398 137.174C88.5985 135.755 84.394 136.097 81.4982 136.53Z" fill="black"/>
<path d="M81.2164 135.881C79.5831 136.123 77.7179 136.802 77.1295 138.662C76.9778 139.374 76.8587 140.097 76.7729 140.825C76.1631 143.671 73.5205 144.995 71.8908 147.175C70.4643 149.091 69.8188 151.691 69.3517 154.226C68.0165 161.487 67.6983 168.97 68.4102 176.36C68.9344 181.763 70.0043 187.083 70.3038 192.507C70.6034 197.932 70.0578 203.646 67.6114 208.205C66.5415 210.169 65.1721 211.891 64.4268 214.049C65.9674 215.567 68.0928 215.779 70.0756 215.861C72.3865 215.957 74.6974 215.957 77.0083 215.861C78.2208 215.81 79.4868 215.719 80.5317 214.97C81.3061 214.372 81.9419 213.545 82.379 212.565C83.702 209.845 84.0337 206.574 83.9802 203.417C83.9267 200.259 83.5094 197.123 83.4631 193.965C83.4381 192.235 83.5487 190.418 84.3618 189.012C84.9537 187.991 85.8489 187.308 86.6156 186.486C89.4899 183.393 90.4778 178.436 90.5741 173.777C90.6704 169.119 90.0356 164.451 90.3601 159.81C90.4885 157.993 91.0484 155.809 92.5212 155.458C92.9884 155.346 93.4841 155.458 93.9263 155.238C95.1103 154.689 94.9961 152.668 95.3314 151.185C95.7094 149.519 96.8791 148.239 97.2107 146.561C97.9846 142.616 93.8478 137.909 91.1482 136.538C88.3274 135.111 84.1264 135.444 81.2164 135.881Z" fill="#35323E"/>
</g>
<defs>
<linearGradient id="paint0_linear" x1="86.5836" y1="369.127" x2="86.5836" y2="134.311" gradientUnits="userSpaceOnUse">
<stop stop-color="#808080" stop-opacity="0.25"/>
<stop offset="0.54" stop-color="#808080" stop-opacity="0.12"/>
<stop offset="1" stop-color="#808080" stop-opacity="0.1"/>
</linearGradient>
<clipPath id="clip0">
<rect width="396.011" height="371" fill="white" transform="translate(0.820251)"/>
</clipPath>
</defs>
</svg>
